<svg width="129" height="32" viewBox="0 0 129 32" fill="none" xmlns="http://www.w3.org/2000/svg">
<path d="M42 15.9672C42 14.9592 42.198 14.0652 42.594 13.2852C43.002 12.5052 43.554 11.9052 44.25 11.4852C44.946 11.0652 45.72 10.8552 46.572 10.8552C47.22 10.8552 47.838 10.9992 48.426 11.2872C49.014 11.5632 49.482 11.9352 49.83 12.4032V7.66918H52.386V20.9892H49.83V19.5132C49.518 20.0052 49.08 20.4012 48.516 20.7012C47.952 21.0012 47.298 21.1512 46.554 21.1512C45.714 21.1512 44.946 20.9352 44.25 20.5032C43.554 20.0712 43.002 19.4652 42.594 18.6852C42.198 17.8932 42 16.9872 42 15.9672ZM49.848 16.0032C49.848 15.3912 49.728 14.8692 49.488 14.4372C49.248 13.9932 48.924 13.6572 48.516 13.4292C48.108 13.1892 47.67 13.0692 47.202 13.0692C46.734 13.0692 46.302 13.1832 45.906 13.4112C45.51 13.6392 45.186 13.9752 44.934 14.4192C44.694 14.8512 44.574 15.3672 44.574 15.9672C44.574 16.5672 44.694 17.0952 44.934 17.5512C45.186 17.9952 45.51 18.3372 45.906 18.5772C46.314 18.8172 46.746 18.9372 47.202 18.9372C47.67 18.9372 48.108 18.8232 48.516 18.5952C48.924 18.3552 49.248 18.0192 49.488 17.5872C49.728 17.1432 49.848 16.6152 49.848 16.0032Z" fill="white"/>
<path d="M59.4192 13.0872H57.6732V20.9892H55.1172V13.0872H53.9832V11.0172H55.1172V10.5132C55.1172 9.28918 55.4652 8.38918 56.1612 7.81318C56.8572 7.23718 57.9072 6.96718 59.3112 7.00318V9.12718C58.6992 9.11518 58.2732 9.21718 58.0332 9.43318C57.7932 9.64918 57.6732 10.0392 57.6732 10.6032V11.0172H59.4192V13.0872Z" fill="white"/>
<path d="M77.7254 10.8732C78.9494 10.8732 79.9334 11.2512 80.6774 12.0072C81.4334 12.7512 81.8114 13.7952 81.8114 15.1392V20.9892H79.2914V15.4812C79.2914 14.7012 79.0934 14.1072 78.6974 13.6992C78.3014 13.2792 77.7614 13.0692 77.0774 13.0692C76.3934 13.0692 75.8474 13.2792 75.4394 13.6992C75.0434 14.1072 74.8454 14.7012 74.8454 15.4812V20.9892H72.3254V15.4812C72.3254 14.7012 72.1274 14.1072 71.7314 13.6992C71.3354 13.2792 70.7954 13.0692 70.1114 13.0692C69.4154 13.0692 68.8634 13.2792 68.4554 13.6992C68.0594 14.1072 67.8614 14.7012 67.8614 15.4812V20.9892H65.3414V11.0172H67.8614V12.2232C68.1854 11.8032 68.5994 11.4732 69.1034 11.2332C69.6194 10.9932 70.1834 10.8732 70.7954 10.8732C71.5754 10.8732 72.2714 11.0412 72.8834 11.3772C73.4954 11.7012 73.9694 12.1692 74.3054 12.7812C74.6294 12.2052 75.0974 11.7432 75.7094 11.3952C76.3334 11.0472 77.0054 10.8732 77.7254 10.8732Z" fill="white"/>
<path d="M88.6307 21.1512C87.6707 21.1512 86.8067 20.9412 86.0387 20.5212C85.2707 20.0892 84.6647 19.4832 84.2207 18.7032C83.7887 17.9232 83.5727 17.0232 83.5727 16.0032C83.5727 14.9832 83.7947 14.0832 84.2387 13.3032C84.6947 12.5232 85.3127 11.9232 86.0927 11.5032C86.8727 11.0712 87.7427 10.8552 88.7027 10.8552C89.6627 10.8552 90.5327 11.0712 91.3127 11.5032C92.0927 11.9232 92.7047 12.5232 93.1487 13.3032C93.6047 14.0832 93.8327 14.9832 93.8327 16.0032C93.8327 17.0232 93.5987 17.9232 93.1307 18.7032C92.6747 19.4832 92.0507 20.0892 91.2587 20.5212C90.4787 20.9412 89.6027 21.1512 88.6307 21.1512ZM88.6307 18.9552C89.0867 18.9552 89.5127 18.8472 89.9087 18.6312C90.3167 18.4032 90.6407 18.0672 90.8807 17.6232C91.1207 17.1792 91.2407 16.6392 91.2407 16.0032C91.2407 15.0552 90.9887 14.3292 90.4847 13.8252C89.9927 13.3092 89.3867 13.0512 88.6667 13.0512C87.9467 13.0512 87.3407 13.3092 86.8487 13.8252C86.3687 14.3292 86.1287 15.0552 86.1287 16.0032C86.1287 16.9512 86.3627 17.6832 86.8307 18.1992C87.3107 18.7032 87.9107 18.9552 88.6307 18.9552Z" fill="white"/>
<path d="M101.207 10.8732C102.395 10.8732 103.355 11.2512 104.087 12.0072C104.819 12.7512 105.185 13.7952 105.185 15.1392V20.9892H102.665V15.4812C102.665 14.6892 102.467 14.0832 102.071 13.6632C101.675 13.2312 101.135 13.0152 100.451 13.0152C99.7552 13.0152 99.2032 13.2312 98.7952 13.6632C98.3992 14.0832 98.2012 14.6892 98.2012 15.4812V20.9892H95.6812V11.0172H98.2012V12.2592C98.5372 11.8272 98.9632 11.4912 99.4792 11.2512C100.007 10.9992 100.583 10.8732 101.207 10.8732Z" fill="white"/>
<path d="M116.852 15.7872C116.852 16.1472 116.828 16.4712 116.78 16.7592H109.49C109.55 17.4792 109.802 18.0432 110.246 18.4512C110.69 18.8592 111.236 19.0632 111.884 19.0632C112.82 19.0632 113.486 18.6612 113.882 17.8572H116.6C116.312 18.8172 115.76 19.6092 114.944 20.2332C114.128 20.8452 113.126 21.1512 111.938 21.1512C110.978 21.1512 110.114 20.9412 109.346 20.5212C108.59 20.0892 107.996 19.4832 107.564 18.7032C107.144 17.9232 106.934 17.0232 106.934 16.0032C106.934 14.9712 107.144 14.0652 107.564 13.2852C107.984 12.5052 108.572 11.9052 109.328 11.4852C110.084 11.0652 110.954 10.8552 111.938 10.8552C112.886 10.8552 113.732 11.0592 114.476 11.4672C115.232 11.8752 115.814 12.4572 116.222 13.2132C116.642 13.9572 116.852 14.8152 116.852 15.7872ZM114.242 15.0672C114.23 14.4192 113.996 13.9032 113.54 13.5192C113.084 13.1232 112.526 12.9252 111.866 12.9252C111.242 12.9252 110.714 13.1172 110.282 13.5012C109.862 13.8732 109.604 14.3952 109.508 15.0672H114.242Z" fill="white"/>
<path d="M128.231 11.0172L122.057 25.7052H119.375L121.535 20.7372L117.539 11.0172H120.365L122.939 17.9832L125.549 11.0172H128.231Z" fill="white"/>
<path d="M26.6418 4.57097C23.6942 1.62331 19.775 0 15.6064 0C11.4378 0 7.51863 1.62331 4.57097 4.57097C1.62331 7.51863 0 11.4378 0 15.6064C0 19.775 1.62337 23.6941 4.57097 26.6418C7.51857 29.5896 11.4378 31.2128 15.6064 31.2128C19.775 31.2128 23.6942 29.5895 26.6418 26.6418C29.5895 23.6942 31.2128 19.775 31.2128 15.6064C31.2128 11.4378 29.5894 7.51869 26.6418 4.57097Z" fill="#33CC95"/>
<g clip-path="url(#clip0_35212_809)">
<path d="M16.0522 6.24263V25.8621" stroke="white" stroke-width="2" stroke-linecap="round" stroke-linejoin="round"/>
<path d="M20.5114 9.80981H13.8229C12.9951 9.80981 12.2012 10.1387 11.6159 10.724C11.0305 11.3094 10.7017 12.1033 10.7017 12.9311C10.7017 13.7589 11.0305 14.5528 11.6159 15.1382C12.2012 15.7235 12.9951 16.0524 13.8229 16.0524H18.2819C19.1097 16.0524 19.9036 16.3812 20.489 16.9666C21.0743 17.5519 21.4032 18.3458 21.4032 19.1737C21.4032 20.0015 21.0743 20.7954 20.489 21.3807C19.9036 21.9661 19.1097 22.2949 18.2819 22.2949H10.7017" stroke="white" stroke-width="2" stroke-linecap="round" stroke-linejoin="round"/>
</g>
<defs>
<clipPath id="clip0_35212_809">
<rect width="21.4031" height="21.4031" fill="white" transform="translate(5.35083 5.35083)"/>
</clipPath>
</defs>
</svg>
